<svg xmlns="http://www.w3.org/2000/svg" viewBox="0 0 512 512" width="512" height="512">
  <!-- Background -->
  <rect width="512" height="512" rx="96" fill="#131313"/>

  <!-- N + dot from the original Noxen wordmark, exact same paths and proportions -->
  <!-- Original N: 76-701 x 0-700. Dot placed right after at baseline. -->
  <!-- Combined bounds: ~76-960 x -10-700 → centered and scaled into 512x512 -->
  <g transform="translate(256, 256) scale(0.44, -0.44) translate(-490, -345)">
    <!-- N letterform (exact logo path) -->
    <path d="M538 700H701V0H554L237 433L239 244V0H76V700H223L540 265L538 452Z" fill="#ffffff"/>
    <!-- Signature dot (exact logo path, repositioned after N) -->
    <g transform="translate(700, 0)">
      <path d="M43 75Q43 112 68.5 136.0Q94 160 134 160Q173 160 198.5 136.0Q224 112 224 75Q224 38 198.5 14.0Q173 -10 134 -10Q94 -10 68.5 14.0Q43 38 43 75Z" fill="#ff5451"/>
    </g>
  </g>
</svg>
